<?xml version="1.0" encoding="iso-8859-1"?>
<!-- Generator: Adobe Illustrator 19.0.0, SVG Export Plug-In . SVG Version: 6.00 Build 0)  -->
<svg version="1.1" id="Capa_1" xmlns="http://www.w3.org/2000/svg" xmlns:xlink="http://www.w3.org/1999/xlink" x="0px" y="0px"
	 viewBox="0 0 380 380" style="enable-background:new 0 0 380 380;" xml:space="preserve">
<g>
	<g>
		<path d="M366.8,118c12.4-4.8,12.4-20,12.4-34l0.8-1.2c0-2-0.8-4.4-1.6-6c-0.4-0.8-0.8-1.2-1.6-2c-2-2-4.8-3.2-8-3.2h-38
			C314,52,293.6,35.6,270,24c-24.4-11.6-51.2-18.4-80-18.4S134.4,12,110,24C86.4,35.2,66,51.6,49.2,71.6h-38c-3.2,0-6,1.2-8,3.2
			S0,79.6,0,82.8V84c0,14.4,0,29.2,12.4,34v21.2c0,0.4,0,0.8,0,1.2c-2,7.6-4,15.6-5.2,23.6c-1.2,8.4-2,17.2-2,26
			c0,50.8,20.8,97.2,54,130.4s79.6,54,130.4,54c50.8,0,97.2-20.8,130.4-54s54-79.6,54-130.4c0-8.8-0.8-17.2-2-26
			c-1.2-8-2.8-16-5.2-23.6c0-0.4,0-0.8,0-1.2V118z M118.8,42.4c21.6-10.4,45.6-16,71.2-16c25.6,0,49.6,6,71.2,16
			c15.6,7.6,30,17.6,42,29.2h-54.4h-27.2h-63.2h-11.6h-70C89.2,59.6,103.2,50,118.8,42.4z M306.4,306.4c-29.6,29.6-70.8,48-116,48
			c-45.2,0-86.4-18.4-116-48c-29.6-29.6-48-70.8-48-116c0-3.6,0-7.6,0.4-11.2c1.2,1.2,2.4,2.8,3.6,4c0.4,0.4,0.8,1.2,1.6,1.6
			l0.4,0.4l0.4,0.4c1.2,1.2,2.4,2,3.6,2.8c1.6,1.6,3.6,3.2,5.6,4.4c1.6,1.2,3.2,1.6,4.8,2.8c2,1.2,4,2.4,6,3.2s4.4,1.6,6.8,2
			c1.6,0.4,3.2,1.2,5.2,1.6c4,0.8,8.4,1.2,12.8,1.2h17.6c22.8,0,43.2-9.2,58-24s24-35.6,24-58V120h27.2v1.6c0,22.8,9.2,43.2,24,58
			s35.6,24,58,24H304c4.4,0,8.4-0.4,12.8-1.2c1.6-0.4,3.6-1.2,5.2-1.6c2.4-0.8,4.4-1.2,6.8-2c2-0.8,4-2,6-3.2
			c1.6-0.8,3.2-1.6,4.8-2.8c2-1.2,3.6-2.8,5.2-4.4c1.2-1.2,2.4-2,3.6-2.8l0.4-0.4l0.4-0.4c0.4-0.4,0.8-1.2,1.6-1.6
			c0.8-1.2,2-2.4,3.2-4c0.4,3.6,0.4,7.2,0.4,11.2C354.4,235.6,336,276.8,306.4,306.4z M357.6,99.6c-5.6,0-10,4.4-10,10v30
			c0,2-0.4,4.4-0.8,6.4c0,1.2-0.4,2-0.4,3.2c-0.4,2-1.2,3.6-1.6,5.2c-0.4,0.8-0.4,2-0.8,2.8c-0.8,1.6-1.6,3.2-2.8,4.8
			c-0.4,0.8-0.8,1.6-1.6,2.4c-1.2,1.6-2.4,2.8-3.6,4.4c-0.4,0.8-1.2,1.2-1.6,2c-1.6,1.6-3.2,2.8-4.8,4c-0.4,0.4-1.2,0.8-1.6,1.2
			c-1.6,1.2-3.6,2-5.6,3.2c-0.8,0.4-1.2,0.8-1.6,0.8c-2,0.8-4,1.6-6.4,2c-0.8,0-1.2,0.4-2,0.4c-2.8,0.4-5.6,0.8-8.8,0.8H286
			c-17.2,0-32.4-6.8-43.6-18s-18-26.8-18-43.6v-12c0-5.6-4.4-10-10-10h-48c-5.6,0-10,4.4-10,10v12c0,17.2-6.8,32.4-18,43.6
			c-11.2,11.2-26.8,18-43.6,18H77.2c-2.8,0-6-0.4-8.8-0.8c-0.8,0-1.2-0.4-2-0.4c-2-0.4-4.4-1.2-6.4-2c-0.8-0.4-1.2-0.8-1.6-0.8
			c-2-0.8-4-2-5.6-3.2c-0.8-0.4-1.2-0.8-1.6-1.2c-1.6-1.2-3.2-2.4-4.8-4c-0.8-0.8-1.2-1.2-1.6-2c-1.2-1.6-2.4-2.8-3.6-4.4
			c-0.4-0.8-0.8-1.6-1.6-2.4c-0.8-1.6-2-3.2-2.8-4.8c-0.4-0.8-0.8-2-0.8-2.8c-0.8-1.6-1.2-3.6-1.6-5.2c-0.4-0.8-0.4-2-0.4-3.2
			c-0.4-2-0.8-4-0.8-6.4v-30c0-5.6-4.4-10-10-10c-1.6,0-2-3.2-2-7.6h32.4h93.2h11.6h63.2h27.2h77.6h33.2
			C359.6,96.4,358.8,99.6,357.6,99.6z"/>
	</g>
</g>
<g>
	<g>
		<path d="M291.6,230.4c-4.8-2.4-11.2-0.4-13.6,4.4c-8.4,16.8-21.2,30.4-36.4,39.6c-15.2,9.2-33.2,14.8-51.6,14.8
			c-18.4,0-36-5.2-51.2-14.4c-15.2-9.2-28-22.4-36.4-38.8c-2.4-4.8-8.8-6.8-13.6-4.4c-4.8,2.4-6.8,8.8-4.4,13.6
			c10.4,19.6,25.6,35.6,44,46.8c18.4,11.2,39.6,17.2,61.6,17.2c22.4,0,44-6.4,62.4-17.6c18.4-11.2,33.6-27.6,44-47.6
			C298.8,238.8,296.8,232.8,291.6,230.4z"/>
	</g>
</g>
<g>
</g>
<g>
</g>
<g>
</g>
<g>
</g>
<g>
</g>
<g>
</g>
<g>
</g>
<g>
</g>
<g>
</g>
<g>
</g>
<g>
</g>
<g>
</g>
<g>
</g>
<g>
</g>
<g>
</g>
</svg>
