<svg height="384pt" viewBox="0 0 384 384" width="384pt" xmlns="http://www.w3.org/2000/svg"><path d="m368 88h-14.65625c-35.207031-54.480469-96.144531-88-161.34375-88s-126.136719 33.519531-161.34375 88h-14.65625c-8.832031 0-16 7.167969-16 16 0 13.078125 2.527344 25.558594 6.960938 37.105469-4.535157 16.542969-6.960938 33.613281-6.960938 50.894531 0 105.871094 86.128906 192 192 192 105.863281 0 192-86.128906 192-192 0-17.28125-2.425781-34.359375-6.960938-50.902344 4.433594-11.546875 6.960938-24.019531 6.960938-37.097656 0-8.832031-7.167969-16-16-16zm-17.792969 32c-7.296875 32.023438-36.007812 56-70.207031 56s-62.910156-23.976562-70.207031-56zm-158.207031-88c47.023438 0 91.398438 20.9375 121.519531 56h-243.039062c30.128906-35.0625 74.496093-56 121.519531-56zm-158.207031 88h5.679687.03125.03125 134.671875c-7.296875 32.023438-36 56-70.207031 56s-62.910156-23.976562-70.207031-56zm158.207031 232c-88.222656 0-160-71.777344-160-160 0-4.230469.191406-8.457031.519531-12.65625 18.65625 17.710938 43.785157 28.65625 71.480469 28.65625 37.070312 0 69.585938-19.550781 88-48.832031 18.425781 29.28125 50.9375 48.832031 88 48.832031 27.6875 0 52.824219-10.953125 71.480469-28.65625.328125 4.199219.519531 8.425781.519531 12.65625 0 88.222656-71.777344 160-160 160zm0 0"/><path d="m248 232c-8.832031 0-16 7.167969-16 16 0 22.054688-17.945312 40-40 40s-40-17.945312-40-40c0-8.832031-7.167969-16-16-16s-16 7.167969-16 16c0 39.695312 32.304688 72 72 72 39.703125 0 72-32.304688 72-72 0-8.832031-7.167969-16-16-16zm0 0"/></svg>