<?xml version="1.0"?>
<svg xmlns="http://www.w3.org/2000/svg" height="512px" viewBox="0 0 384 384" width="512px" class=""><g><path d="m192 0c-105.871094 0-192 86.128906-192 192s86.128906 192 192 192 192-86.128906 192-192-86.128906-192-192-192zm0 352c-88.222656 0-160-71.777344-160-160s71.777344-160 160-160 160 71.777344 160 160-71.777344 160-160 160zm0 0" data-original="#000000" class="active-path" data-old_color="#000000" fill="#004D40"/><path d="m144 176c0 8.832031 7.167969 16 16 16s16-7.167969 16-16c0-30.878906-25.121094-56-56-56s-56 25.121094-56 56c0 8.832031 7.167969 16 16 16s16-7.167969 16-16c0-13.230469 10.769531-24 24-24s24 10.769531 24 24zm0 0" data-original="#000000" class="active-path" data-old_color="#000000" fill="#004D40"/><path d="m264 120c-30.878906 0-56 25.121094-56 56 0 8.832031 7.167969 16 16 16s16-7.167969 16-16c0-13.230469 10.769531-24 24-24s24 10.769531 24 24c0 8.832031 7.167969 16 16 16s16-7.167969 16-16c0-30.878906-25.121094-56-56-56zm0 0" data-original="#000000" class="active-path" data-old_color="#000000" fill="#004D40"/><path d="m248 232c-8.832031 0-16 7.167969-16 16 0 22.054688-17.945312 40-40 40s-40-17.945312-40-40c0-8.832031-7.167969-16-16-16s-16 7.167969-16 16c0 39.695312 32.304688 72 72 72s72-32.304688 72-72c0-8.832031-7.167969-16-16-16zm0 0" data-original="#000000" class="active-path" data-old_color="#000000" fill="#004D40"/></g> </svg>
