<svg height="384pt" viewBox="0 0 384 384" width="384pt" xmlns="http://www.w3.org/2000/svg"><path d="m192 0c-105.871094 0-192 86.128906-192 192 0 70.328125 38.03125 131.902344 94.574219 165.351562 1.027343.753907 2.113281 1.410157 3.304687 1.90625 27.839844 15.71875 59.9375 24.742188 94.121094 24.742188s66.28125-9.023438 94.121094-24.742188c1.191406-.496093 2.277344-1.152343 3.304687-1.90625 56.542969-33.449218 94.574219-95.023437 94.574219-165.351562 0-105.871094-86.128906-192-192-192zm104 313.34375v-153.34375h8c8.832031 0 16-7.167969 16-16s-7.167969-16-16-16h-80c-8.832031 0-16 7.167969-16 16s7.167969 16 16 16h40v174.6875c-21.671875 10.984375-46.089844 17.3125-72 17.3125s-50.328125-6.328125-72-17.3125v-174.6875h40c8.832031 0 16-7.167969 16-16s-7.167969-16-16-16h-80c-8.832031 0-16 7.167969-16 16s7.167969 16 16 16h8v153.34375c-34.214844-29.367188-56-72.824219-56-121.34375 0-88.222656 71.777344-160 160-160s160 71.777344 160 160c0 48.519531-21.785156 91.976562-56 121.34375zm0 0"/><path d="m144 256c0 30.871094 21.527344 56 48 56s48-25.128906 48-56-21.527344-56-48-56-48 25.128906-48 56zm64 0c0 12.785156-7.480469 24-16 24s-16-11.214844-16-24 7.480469-24 16-24 16 11.214844 16 24zm0 0"/></svg>