<?xml version="1.0"?>
<svg xmlns="http://www.w3.org/2000/svg" height="512px" viewBox="0 0 384 384" width="512px" class=""><g><path d="m317 18.640625c-.777344-.257813-1.558594-.472656-2.375-.617187-6.007812-1.296876-12.234375-2.023438-18.625-2.023438-6.511719 0-12.886719.761719-19.089844 2.152344-.09375.015625-.183594.039062-.277344.054687-.710937.160157-1.425781.28125-2.128906.464844-25.550781-12.183594-53.910156-18.671875-82.503906-18.671875-28.640625 0-57.039062 6.511719-82.632812 18.734375-.121094-.03125-.238282-.0625-.359376-.09375-.777343-.257813-1.558593-.472656-2.375-.617187-6.015624-1.296876-12.242187-2.023438-18.632812-2.023438s-12.617188.726562-18.625 2.023438c-.824219.136718-1.597656.359374-2.375.617187-38.398438 9.457031-67 44.085937-67 85.359375 0 12.566406 2.6875 24.496094 7.457031 35.320312-4.855469 17.03125-7.457031 34.695313-7.457031 52.679688 0 105.871094 86.128906 192 192 192 105.863281 0 192-86.128906 192-192 0-18.039062-2.617188-35.761719-7.503906-52.839844 4.832031-11.007812 7.503906-22.992187 7.503906-35.160156 0-41.273438-28.601562-75.902344-67-85.359375zm-53 39.519531v13.839844c0 8.664062 3.390625 16.742188 9.265625 22.449219 6 6.160156 14.078125 9.550781 22.734375 9.550781 17.648438 0 32-14.351562 32-32v-13.886719c14.488281 10.132813 24 26.910157 24 45.886719 0 9.34375-2.199219 18.175781-6.550781 26.238281-.007813.019531-.007813.035157-.015625.042969-.007813.015625-.027344.023438-.035156.039062-9.734376 18.3125-28.664063 29.679688-49.398438 29.679688-30.871094 0-56-25.121094-56-56 0-18.671875 9.257812-35.585938 24-45.839844zm-208-.046875v13.886719c0 8.664062 3.390625 16.734375 9.265625 22.449219 6 6.160156 14.070313 9.550781 22.734375 9.550781 17.648438 0 32-14.351562 32-32v-13.886719c14.488281 10.132813 24 26.910157 24 45.886719 0 30.878906-25.121094 56-56 56-21.222656 0-39.71875-11.863281-49.214844-29.304688-.042968-.070312-.074218-.152343-.113281-.222656-4.246094-7.886718-6.671875-16.90625-6.671875-26.472656 0-18.984375 9.511719-35.761719 24-45.886719zm136 293.886719c-88.222656 0-160-71.777344-160-160 0-6.472656.496094-12.871094 1.257812-19.222656 15.039063 12 34.054688 19.222656 54.742188 19.222656 48.519531 0 88-39.480469 88-88 0-25.96875-11.375-49.273438-29.320312-65.390625 29.3125-8.503906 61.28125-8.679687 90.527343-.121094-18.207031 16.3125-29.207031 39.910157-29.207031 65.511719 0 48.519531 39.480469 88 88 88 20.335938 0 39.558594-6.960938 54.863281-19.175781.761719 6.328125 1.136719 12.726562 1.136719 19.175781 0 88.222656-71.777344 160-160 160zm0 0" data-original="#000000" class="active-path" data-old_color="#000000" fill="#013220"/><path d="m240 248h-96c-8.832031 0-16 7.167969-16 16s7.167969 16 16 16h96c8.832031 0 16-7.167969 16-16s-7.167969-16-16-16zm0 0" data-original="#000000" class="active-path" data-old_color="#000000" fill="#013220"/></g> </svg>
