<?xml version="1.0"?>
<svg xmlns="http://www.w3.org/2000/svg" height="512px" viewBox="0 0 384 384" width="512px" class=""><g><path d="m240 248h-96c-8.832031 0-16 7.167969-16 16s7.167969 16 16 16h96c8.832031 0 16-7.167969 16-16s-7.167969-16-16-16zm0 0" data-original="#000000" class="active-path" data-old_color="#000000" fill="#004D40"/><path d="m381.910156 122.449219c1.296875-6.050781 2.089844-12.21875 2.089844-18.449219 0-6.382812-.71875-12.601562-2.023438-18.601562-.144531-.855469-.367187-1.671876-.640624-2.46875-9.480469-38.371094-44.089844-66.929688-85.335938-66.929688-7.351562 0-14.550781.902344-21.496094 2.664062-25.542968-12.175781-53.902344-18.664062-82.503906-18.664062-28.648438 0-57.054688 6.511719-82.640625 18.726562-6.855469-1.710937-13.984375-2.726562-21.359375-2.726562-48.519531 0-88 39.480469-88 88 0 12.566406 2.695312 24.503906 7.457031 35.328125-4.855469 17.023437-7.457031 34.6875-7.457031 52.671875 0 105.863281 86.128906 192 192 192 105.863281 0 192-86.136719 192-192 0-18.039062-2.617188-35.753906-7.503906-52.832031 2.175781-4.96875 3.945312-10.097657 5.167968-15.40625.105469-.433594.175782-.867188.246094-1.3125zm-103.734375-71.511719c.015625-.007812.03125-.015625.046875-.027344.035156-.007812.066406-.007812.089844-.023437 5.574219-1.917969 11.527344-2.886719 17.6875-2.886719 18.976562 0 35.753906 9.511719 45.886719 24h-13.886719c-8.664062 0-16.742188 3.390625-22.449219 9.257812-6.160156 6-9.550781 14.078126-9.550781 22.742188 0 17.648438 14.351562 32 32 32h13.863281c-10.382812 14.929688-27.382812 24-45.863281 24-30.871094 0-56-25.128906-56-56 0-24.128906 15.34375-45.449219 38.175781-53.0625zm-190.175781-2.9375c18.984375 0 35.761719 9.511719 45.886719 24h-13.886719c-8.664062 0-16.742188 3.390625-22.449219 9.265625-6.160156 6-9.550781 14.078125-9.550781 22.734375 0 17.648438 14.351562 32 32 32h13.886719c-10.132813 14.488281-26.910157 24-45.886719 24-21.222656 0-39.726562-11.871094-49.222656-29.320312-.035156-.0625-.058594-.121094-.089844-.183594-4.261719-7.894532-6.6875-16.921875-6.6875-26.496094 0-30.871094 25.121094-56 56-56zm104 304c-88.222656 0-160-71.777344-160-160 0-6.472656.503906-12.871094 1.257812-19.222656 15.039063 12 34.054688 19.222656 54.742188 19.222656 41.273438 0 75.902344-28.601562 85.359375-67 .257813-.777344.472656-1.558594.617187-2.375 1.296876-6.007812 2.023438-12.234375 2.023438-18.625s-.726562-12.617188-2.023438-18.625c-.136718-.824219-.359374-1.597656-.617187-2.375-4.289063-17.414062-13.75-32.777344-26.6875-44.398438 29.304687-8.503906 61.28125-8.679687 90.542969-.113281-18.207032 16.3125-29.214844 39.910157-29.214844 65.511719 0 48.519531 39.480469 88 88 88 20.335938 0 39.558594-6.960938 54.863281-19.175781.761719 6.328125 1.136719 12.726562 1.136719 19.175781 0 88.222656-71.777344 160-160 160zm0 0" data-original="#000000" class="active-path" data-old_color="#000000" fill="#004D40"/></g> </svg>
