<?xml version="1.0"?>
<svg xmlns="http://www.w3.org/2000/svg" height="512px" viewBox="0 0 384 384" width="512px" class=""><g><path d="m192 192c-48.519531 0-88 39.480469-88 88 0 8.832031 7.167969 16 16 16h144c8.832031 0 16-7.167969 16-16 0-48.519531-39.480469-88-88-88zm-53.671875 72c6.902344-23.113281 28.351563-40 53.671875-40s46.769531 16.886719 53.671875 40zm0 0" data-original="#000000" class="active-path" data-old_color="#000000" fill="#004D40"/><path d="m296 16c-7.351562 0-14.550781.894531-21.496094 2.664062-25.550781-12.175781-53.902344-18.664062-82.503906-18.664062-28.648438 0-57.054688 6.511719-82.640625 18.726562-6.855469-1.710937-13.984375-2.726562-21.359375-2.726562-48.519531 0-88 39.480469-88 88 0 12.566406 2.695312 24.503906 7.457031 35.328125-4.855469 17.023437-7.457031 34.6875-7.457031 52.671875 0 105.863281 86.128906 192 192 192s192-86.136719 192-192c0-18.046875-2.617188-35.761719-7.503906-52.839844 4.832031-11.015625 7.503906-22.992187 7.503906-35.160156 0-48.519531-39.480469-88-88-88zm-17.816406 34.9375c.015625-.007812.03125-.015625.046875-.027344.035156-.007812.066406-.007812.089843-.023437 5.574219-1.917969 11.519532-2.886719 17.679688-2.886719 30.878906 0 56 25.128906 56 56 0 9.34375-2.207031 18.175781-6.558594 26.246094-.007812.019531-.015625.035156-.027344.050781-.007812.015625-.015624.023437-.023437.03125-9.726563 18.304687-28.65625 29.671875-49.390625 29.671875-30.878906 0-56-25.128906-56-56 0-24.128906 15.34375-45.449219 38.183594-53.0625zm-190.183594-2.9375c30.878906 0 56 25.128906 56 56s-25.121094 56-56 56c-21.222656 0-39.726562-11.871094-49.222656-29.320312-.035156-.0625-.058594-.121094-.089844-.183594-4.261719-7.894532-6.6875-16.921875-6.6875-26.496094 0-30.871094 25.121094-56 56-56zm104 304c-88.222656 0-160-71.777344-160-160 0-6.472656.503906-12.871094 1.257812-19.222656 15.039063 12 34.054688 19.222656 54.742188 19.222656 48.519531 0 88-39.480469 88-88 0-25.976562-11.375-49.28125-29.328125-65.398438 29.3125-8.503906 61.28125-8.679687 90.535156-.113281-18.207031 16.3125-29.207031 39.910157-29.207031 65.511719 0 48.519531 39.480469 88 88 88 20.335938 0 39.566406-6.953125 54.871094-19.175781.753906 6.328125 1.128906 12.726562 1.128906 19.175781 0 88.222656-71.777344 160-160 160zm0 0" data-original="#000000" class="active-path" data-old_color="#000000" fill="#004D40"/><path d="m88 128c13.230469 0 24-10.769531 24-24s-10.769531-24-24-24-24 10.769531-24 24 10.769531 24 24 24zm0 0" data-original="#000000" class="active-path" data-old_color="#000000" fill="#004D40"/><path d="m296 128c13.230469 0 24-10.769531 24-24s-10.769531-24-24-24-24 10.769531-24 24 10.769531 24 24 24zm0 0" data-original="#000000" class="active-path" data-old_color="#000000" fill="#004D40"/></g> </svg>
